<?xml version="1.0" encoding="UTF-8"?>
<!DOCTYPE svg PUBLIC "-//W3C//DTD SVG 1.1//EN" "http://www.w3.org/Graphics/SVG/1.1/DTD/svg11.dtd">
<svg xmlns="http://www.w3.org/2000/svg" version="1.1" width="512px" height="512px" style="shape-rendering:geometricPrecision; text-rendering:geometricPrecision; image-rendering:optimizeQuality; fill-rule:evenodd; clip-rule:evenodd" xmlns:xlink="http://www.w3.org/1999/xlink">
<g><path style="opacity:0.98" fill="#fefefe" d="M 103.5,-0.5 C 108.833,-0.5 114.167,-0.5 119.5,-0.5C 126.728,2.22525 131.894,7.22525 135,14.5C 163.667,82.5 192.333,150.5 221,218.5C 227.688,235.463 222.854,247.63 206.5,255C 193.172,257.917 183.338,253.417 177,241.5C 170.167,225.167 163.333,208.833 156.5,192.5C 126.5,191.167 96.5,191.167 66.5,192.5C 59.6667,208.833 52.8333,225.167 46,241.5C 38.6827,254.499 27.8494,258.665 13.5,254C 6.83442,250.508 2.16775,245.341 -0.5,238.5C -0.5,233.833 -0.5,229.167 -0.5,224.5C 29.6826,152.478 60.1826,80.4781 91,8.5C 94.651,4.60895 98.8176,1.60895 103.5,-0.5 Z M 110.5,86.5 C 111.497,86.4701 112.164,86.9701 112.5,88C 120.029,106.224 127.695,124.391 135.5,142.5C 119.5,143.833 103.5,143.833 87.5,142.5C 95.7383,124.029 103.405,105.363 110.5,86.5 Z"/></g>
<g><path style="opacity:0.974" fill="#fffefe" d="M 304.5,63.5 C 367.015,63.2326 411.515,91.2326 438,147.5C 445.661,166.466 448.661,186.133 447,206.5C 441.543,220.482 431.376,225.982 416.5,223C 408.333,220.167 402.833,214.667 400,206.5C 399.692,164.914 380.859,135.414 343.5,118C 330.871,113.641 317.871,111.308 304.5,111C 289.242,104.644 284.075,93.4774 289,77.5C 292.492,70.8344 297.659,66.1678 304.5,63.5 Z"/></g>
<g><path style="opacity:0.982" fill="#fefefe" d="M 511.5,320.5 C 511.5,325.167 511.5,329.833 511.5,334.5C 505.174,348.506 494.174,354.506 478.5,352.5C 473.343,385.846 460.01,415.346 438.5,441C 459.386,449.943 480.386,458.61 501.5,467C 506.269,470.579 509.603,475.079 511.5,480.5C 511.5,485.167 511.5,489.833 511.5,494.5C 508.167,502.5 502.5,508.167 494.5,511.5C 489.833,511.5 485.167,511.5 480.5,511.5C 460.922,503.721 441.255,495.887 421.5,488C 414.004,484.086 406.671,479.92 399.5,475.5C 392.329,479.92 384.996,484.086 377.5,488C 357.745,495.887 338.078,503.721 318.5,511.5C 313.833,511.5 309.167,511.5 304.5,511.5C 287.646,503.447 283.146,490.78 291,473.5C 293.921,469.908 297.421,467.075 301.5,465C 321.407,457.587 341.074,449.587 360.5,441C 339.211,415.244 325.878,385.744 320.5,352.5C 308.613,354.041 298.779,350.374 291,341.5C 284.59,328.291 286.757,316.791 297.5,307C 299.717,305.725 302.051,304.725 304.5,304C 328.164,303.5 351.831,303.333 375.5,303.5C 375.067,292.09 375.567,280.756 377,269.5C 385.843,254.955 398.009,251.455 413.5,259C 418.252,262.414 421.419,266.914 423,272.5C 423.5,282.828 423.666,293.161 423.5,303.5C 447.169,303.333 470.836,303.5 494.5,304C 502.684,307.019 508.351,312.519 511.5,320.5 Z M 370.5,351.5 C 389.845,351.167 409.178,351.5 428.5,352.5C 424.022,374.14 414.689,393.306 400.5,410C 399.004,410.507 397.837,410.007 397,408.5C 383.661,391.676 374.828,372.676 370.5,351.5 Z"/></g>
<g><path style="opacity:0.973" fill="#fefefe" d="M 80.5,287.5 C 95.367,285.012 105.534,290.678 111,304.5C 111.087,345.217 129.253,374.383 165.5,392C 178.673,397.101 192.34,399.768 206.5,400C 220.482,405.457 225.982,415.624 223,430.5C 220.167,438.667 214.667,444.167 206.5,447C 144.847,447.937 100.68,420.771 74,365.5C 64.9099,344.967 61.9099,323.634 65,301.5C 68.4922,294.834 73.6589,290.168 80.5,287.5 Z"/></g>
</svg>
